<svg width="121" height="88" viewBox="0 0 121 88" fill="none" xmlns="http://www.w3.org/2000/svg">
<path d="M8.91923 14.6079H96.2174C98.4851 14.6146 100.658 15.5184 102.261 17.1219C103.865 18.7253 104.769 20.8982 104.775 23.1658V65.987C104.769 68.2553 103.865 70.4288 102.262 72.0333C100.659 73.6377 98.4857 74.5429 96.2174 74.5513H66.0079L52.5652 87.994L39.1225 74.5513H8.91923C6.64991 74.5446 4.47544 73.6401 2.87078 72.0355C1.26613 70.4308 0.361675 68.2563 0.35498 65.987V23.1658C0.361682 20.8971 1.26633 18.7233 2.87117 17.1196C4.47601 15.516 6.65049 14.6129 8.91923 14.6079Z" fill="#0070E0"/>
<path d="M14.5146 29.4461V59.7064C14.5044 60.8798 14.9591 62.0096 15.7793 62.8488C16.5995 63.688 17.7185 64.1685 18.8919 64.1852H86.2386C87.4119 64.1685 88.531 63.688 89.3512 62.8488C90.1714 62.0096 90.626 60.8798 90.6159 59.7064V29.4461C90.6154 28.8729 90.5078 28.3049 90.2987 27.7713C89.9794 26.9519 89.422 26.2468 88.6984 25.7471C87.9747 25.2473 87.118 24.9757 86.2386 24.9673H18.8919C18.0131 24.9753 17.157 25.2468 16.4343 25.7467C15.7116 26.2466 15.1556 26.9519 14.8381 27.7713C14.6231 28.3034 14.5132 28.8721 14.5146 29.4461Z" fill="white"/>
<path opacity="0.1" d="M14.838 27.7713L47.3948 41.9499C49.0265 42.6623 50.7878 43.0301 52.5682 43.0301C54.3487 43.0301 56.11 42.6623 57.7417 41.9499L90.2985 27.7713C89.9792 26.9519 89.4218 26.2468 88.6982 25.7471C87.9745 25.2473 87.1178 24.9757 86.2384 24.9673H18.8918C18.013 24.9753 17.1569 25.2468 16.4342 25.7467C15.7115 26.2466 15.1554 26.9519 14.838 27.7713Z" fill="#161A32"/>
<path d="M106.566 31C112.089 25.4772 112.089 16.5228 106.566 11C101.044 5.47715 92.0893 5.47715 86.5664 11C81.0436 16.5228 81.0436 25.4772 86.5664 31C92.0893 36.5228 101.044 36.5228 106.566 31Z" fill="#FE5722"/>
<path d="M99.2947 29.6191H96.0003V17.2137C94.7825 18.3464 93.331 19.1981 91.748 19.7086V16.7244C92.7646 16.3507 93.7106 15.8077 94.5462 15.1186C95.4871 14.4186 96.2052 13.4611 96.6137 12.3618H99.2878L99.2947 29.6191Z" fill="white"/>
</svg>
